# xmcd CD database file
#
# Track frame offsets:
#	150
#	27666
#	52962
#	82024
#	103521
#	139475
#	163090
#	190198
#	224956
#	257289
#	276458
#	298951
#
# Disc length: 4226 seconds
#
# Revision: 0
# Processed by: cddbd v1.5.1PL0 Copyright (c) Steve Scherf et al.
# Submitted via: CDex 1.51
#
DISCID=c510800c
DTITLE=Delcley - Delcley and Quinteto - Urbi et orbi
DYEAR=2003
DGENRE=Jazz
TTITLE0=Last Train home
TTITLE1=A casa do 40
TTITLE2=Porto Arthur
TTITLE3=Isaura
TTITLE4=Rosa Espanha
TTITLE5=Barcarena
TTITLE6=Eleanor Rigby
TTITLE7=Esperanca
TTITLE8=Nothing personal
TTITLE9=Frevo
TTITLE10=Pro Ze
TTITLE11=Lucas
EXTD=YEAR: 2003
EXTT0=
EXTT1=
EXTT2=
EXTT3=
EXTT4=
EXTT5=
EXTT6=
EXTT7=
EXTT8=
EXTT9=
EXTT10=
EXTT11=
PLAYORDER=
